PathFileType	4	(X/Y/Z)	E:\Qualisys_Data\Carbon_Farble_Plate\Data\Amateur_Runner\S1\T1\S1T1V12_c3d.trc
DataRate	CameraRate	NumFrames	NumMarkers	Units	OrigDataRate	OrigDataStartFrame	OrigNumFrames
200.000000	200.000000	4	39	mm	200.000000	156	312
Frame#	Time	LSHO			RSHO			LICST			RICST			LASIS			LHEEL			RASIS			LTROC			RTROC			SACR			LTH1			LSK4			LTH2			LTH3			RHM5			LSK2			LTH4			RTH1			LTOE			RTH2			RTH3			RTH4			LLEP			RLEP			LSK1			LSK3			RSK1			LHM5			RSK2			LFT1			RSK3			RSK4			LLME			RLME			RTOE			RHEEL			RFT1			RFT2			LFT2			
		X1	Y1	Z1	X2	Y2	Z2	X3	Y3	Z3	X4	Y4	Z4	X5	Y5	Z5	X6	Y6	Z6	X7	Y7	Z7	X8	Y8	Z8	X9	Y9	Z9	X10	Y10	Z10	X11	Y11	Z11	X12	Y12	Z12	X13	Y13	Z13	X14	Y14	Z14	X15	Y15	Z15	X16	Y16	Z16	X17	Y17	Z17	X18	Y18	Z18	X19	Y19	Z19	X20	Y20	Z20	X21	Y21	Z21	X22	Y22	Z22	X23	Y23	Z23	X24	Y24	Z24	X25	Y25	Z25	X26	Y26	Z26	X27	Y27	Z27	X28	Y28	Z28	X29	Y29	Z29	X30	Y30	Z30	X31	Y31	Z31	X32	Y32	Z32	X33	Y33	Z33	X34	Y34	Z34	X35	Y35	Z35	X36	Y36	Z36	X37	Y37	Z37	X38	Y38	Z38	X39	Y39	Z39	

157	0.78	189.5124816894531	1536.44775390625	-451.7996520996094	104.3352432250977	1520.251098632812	-144.2773895263672	112.2422943115234	1056.046875	-452.2388610839844	116.2005615234375	1075.781982421875	-156.4563446044922	155.08642578125	1015.203063964844	-428.6426391601562	-435.7839965820312	386.3451843261719	-334.3139038085938	153.5847320556641	1028.329345703125	-165.6354370117188	31.66738128662109	943.489013671875	-469.1893005371094	50.86851501464844	935.69140625	-132.0149841308594	-3.307523727416992	1085.53759765625	-298.4049072265625	121.6227035522461	769.8214111328125	-437.110595703125	-307.4168395996094	447.7680969238281	-371.1045227050781	44.48028564453125	782.9568481445312	-465.9499206542969	96.80771636962892	669.1343383789062	-423.5051574707031	440.6286315917969	121.0282516479492	-137.1021728515625	-222.4547119140625	490.2413330078125	-412.4252014160156	16.76701927185059	687.5353393554688	-445.1553649902344	199.3661193847656	826.4735107421875	-151.6589813232422	-357.4578247070312	142.71337890625	-335.5803833007812	128.5919494628906	806.1181640625	-116.4679946899414	227.1949157714844	728.6767578125	-150.9978332519531	150.7953796386719	708.6161499023438	-127.0038833618164	-6.999804019927979	531.2822265625	-414.3683471679688	232.5384216308594	562.6702270507812	-170.6026763916016	-187.0511016845703	412.4676513671875	-407.7285461425781	-281.3950500488281	377.2135314941406	-398.4812927246094	269.6430053710938	378.4274291992188	-144.4695434570312	-401.2276611328125	195.1282958984375	-392.82958984375	190.6088714599609	360.3071594238281	-153.247802734375	-451.868896484375	370.4030456542969	-300.9418029785156	294.3847045898438	281.4289855957031	-155.45068359375	218.2061004638672	263.6124572753906	-175.5759124755859	-399.0287170410156	346.6963195800781	-383.5613708496094	298.8180847167969	141.5647125244141	-152.8260040283203	494.4989013671875	169.2956390380859	-212.6330871582031	253.8257904052734	77.61246490478516	-195.5606842041016	275.9278869628906	57.07726287841797	-229.7855377197266	269.986083984375	55.76370239257812	-171.4716796875	-462.564697265625	371.074951171875	-355.2044372558594
158	0.785	204.8699035644531	1533.223266601562	-450.9148254394531	120.4289932250977	1516.5234375	-143.3895416259766	127.8339920043945	1052.72216796875	-452.1298522949219	131.6838073730469	1072.753173828125	-155.8710479736328	170.9124450683594	1012.135375976562	-428.2815856933594	-416.8662109375	392.32666015625	-334.4674377441406	169.7335052490234	1025.63134765625	-164.9960327148438	48.14052581787109	939.5350952148438	-469.6066589355469	66.43604278564453	932.8601684570312	-131.8049774169922	11.9660758972168	1081.923461914062	-297.9792785644531	140.1437530517578	766.7968139648438	-437.08447265625	-287.41162109375	450.6127319335938	-371.2505187988281	63.11910629272461	778.5595092773438	-466.0668334960938	116.9354934692383	665.7894287109375	-423.883544921875	449.7241821289062	114.8212432861328	-138.4700775146484	-201.4081420898438	490.4295349121094	-412.6029052734375	36.32709884643555	683.0986938476562	-445.4259338378906	215.6288452148438	825.3019409179688	-150.4095306396484	-344.7667236328125	147.1947784423828	-335.3069458007812	144.2166290283203	803.90966796875	-116.3113479614258	244.4074554443359	727.4367065429688	-150.4774322509766	166.8085784912109	706.5435180664062	-128.5146789550781	14.54065322875977	526.7218627929688	-415.24560546875	247.9150543212891	559.7639770507812	-170.8477783203125	-168.1332550048828	412.1207885742188	-407.8528442382812	-263.021728515625	378.5960998535156	-397.7253112792969	282.2537841796875	374.328125	-145.1963653564453	-387.0167846679688	200.5722808837891	-392.5502014160156	202.8268585205078	357.3145141601562	-153.5858764648438	-434.0924072265625	376.8081359863281	-300.2186584472656	305.2974548339844	276.7718200683594	-155.7297058105469	228.2236480712891	261.4486083984375	-174.4729309082031	-381.15185546875	352.7052612304688	-383.4810791015625	307.9488220214844	136.6751556396484	-153.6602020263672	503.1632385253906	163.4391632080078	-214.0541076660156	262.1759643554688	73.44022369384766	-196.3212127685547	283.5487670898438	53.0760612487793	-230.5064086914062	278.2080688476562	51.07926940917969	-172.0501403808594	-443.9936218261719	378.2141723632812	-355.6314392089844
159	0.79	220.5379791259766	1530.109130859375	-450.1461486816406	136.7888031005859	1512.3623046875	-142.1562957763672	143.4749908447266	1049.060546875	-451.8255615234375	146.5673065185547	1069.22509765625	-155.5441436767578	186.7538299560547	1008.795349121094	-427.9176635742188	-397.5680541992188	398.0884704589844	-333.5265502929688	184.6893005371094	1022.747924804688	-164.4614562988281	64.77082061767578	935.0513916015624	-469.4635009765625	81.73561096191406	929.6747436523438	-131.7977142333984	27.50550842285156	1078.101318359375	-297.7380676269531	158.6423492431641	763.5850219726562	-437.1819763183594	-267.0926208496094	452.6720581054688	-371.7403564453125	81.50883483886719	774.5565185546875	-466.2675170898438	136.8630981445312	662.3046264648438	-424.1582641601562	457.8089599609375	108.1664962768555	-139.87060546875	-180.2192230224609	490.2063293457031	-412.9271850585938	56.29592895507812	678.2073364257812	-445.7083129882812	232.4761810302734	823.7280883789062	-149.1807861328125	-331.03125	151.5584411621094	-335.66259765625	160.1281433105469	801.8486328125	-117.5228118896484	261.1668395996094	725.9471435546875	-150.2072143554688	183.6655120849609	704.7001342773438	-129.2561187744141	36.05833053588867	521.9664306640625	-416.0461120605469	263.1449584960938	556.0888061523438	-170.8525695800781	-148.8244934082031	411.6359252929688	-407.9444580078125	-244.1559600830078	379.5101013183594	-397.6781311035156	294.48193359375	369.4233093261719	-145.6707153320312	-371.9698486328125	206.0218963623047	-392.454345703125	214.4890289306641	353.9817810058594	-153.8513793945312	-414.7109069824219	382.6294555664062	-300.0723266601562	315.6550598144531	271.3701782226562	-155.9760131835938	238.1872100830078	257.3970947265625	-175.2262573242188	-363.3321838378906	357.4249572753906	-383.6683044433594	316.0754699707031	131.6035461425781	-154.4079742431641	511.0511169433594	157.2117004394531	-215.1663360595703	269.7456665039062	69.57493591308594	-196.7716827392578	290.4433288574219	48.9265022277832	-231.6321258544922	285.610107421875	46.78943252563477	-173.2273101806641	-425.0631713867188	384.7926940917969	-355.4797668457031
160	0.795	235.6139984130859	1526.407470703125	-449.2601013183594	152.9566955566406	1507.834716796875	-140.9289398193359	158.7227630615234	1045.127319335938	-451.6809692382812	162.5975341796875	1066.222045898438	-155.1403656005859	202.1688537597656	1005.000244140625	-427.3447570800781	-377.4508972167969	403.6383666992188	-333.1117248535156	200.5956726074219	1019.707214355469	-163.6899108886719	81.2685775756836	930.345458984375	-469.5162963867188	96.85064697265624	926.2174072265624	-131.7667541503906	42.68783569335938	1073.582885742188	-297.6528625488281	176.9618377685547	760.2766723632812	-437.6065979003906	-245.9585723876953	454.6187744140625	-371.5139465332031	99.86068725585938	770.1392211914062	-466.5283508300781	156.9031677246094	658.3275146484375	-425.0525207519531	464.32080078125	100.5617065429688	-141.2980804443359	-158.2388916015625	490.0230712890625	-413.4734191894531	76.01204681396484	673.4577026367188	-446.3626708984375	249.3062133789062	822.0496215820312	-146.8549346923828	-316.7029113769531	155.9897308349609	-335.9905395507812	176.0769958496094	799.6876220703125	-117.8151397705078	278.0551147460938	723.9998168945312	-149.9850921630859	199.6873931884766	702.70068359375	-130.3318328857422	57.83956146240234	517.1190185546875	-417.2748107910156	278.5413208007812	552.5299072265625	-171.3864135742188	-128.794189453125	410.6543273925781	-408.0243835449219	-224.8885498046875	380.8211364746094	-397.5672607421875	305.9415588378906	364.6292114257812	-145.8777770996094	-356.1851501464844	211.3272094726562	-393.0936584472656	225.7754058837891	350.7273254394531	-154.7823181152344	-395.3371887207031	388.9019470214844	-299.582763671875	325.0196838378906	266.2103576660156	-156.8070831298828	247.7540435791016	253.2314300537109	-175.9072265625	-344.6596984863281	362.2886962890625	-383.5221862792969	323.6474914550781	126.5686416625977	-155.1678009033203	517.8193359375	148.6690521240234	-216.7439117431641	275.7192993164062	71.66987609863281	-197.9136962890625	294.8893432617188	50.06288909912109	-232.7741088867188	288.8656005859375	49.34922027587891	-173.9767608642578	-405.7348327636719	390.743896484375	-355.3655395507812
